# xmcd
#
# Track frame offsets:
# 150
# 1756
# 20958
# 23779
# 47477
# 75012
# 76521
# 95718
# 98064
# 115408
# 117638
# 141058
# 144725
#
# Disc length: 2270 seconds
#
# Revision: 0
# Processed by: cddbd v1.5.2PL0 Copyright (c) Steve Scherf et al.
# Submitted via: Audion 3.0.2 (http://www.panic.com/audion/)
#
DISCID=9a08dc0d
DTITLE=Aqualung - With Apologies to Anyone Who is Actually Heartbroken (Live and Rarities)
DYEAR=1900
DGENRE=
TTITLE0=Intro
TTITLE1=Strange and Beautiful (I'll Put a Spell on You)
TTITLE2=Intro
TTITLE3=Brighter Than Sunshine
TTITLE4=Somebody to Love
TTITLE5=Intro
TTITLE6=Falling Out of Love
TTITLE7=Intro
TTITLE8=Easier to Lie
TTITLE9=Intro
TTITLE10=Another Little Hole
TTITLE11=Intro
TTITLE12=7 Keys
EXTD=
EXTT0=
EXTT1=
EXTT2=
EXTT3=
EXTT4=
EXTT5=
EXTT6=
EXTT7=
EXTT8=
EXTT9=
EXTT10=
EXTT11=
EXTT12=
PLAYORDER=
